<?xml version="1.0" standalone="no"?>
<!DOCTYPE svg PUBLIC "-//W3C//DTD SVG 20010904//EN"
 "http://www.w3.org/TR/2001/REC-SVG-20010904/DTD/svg10.dtd">
<svg version="1.0" xmlns="http://www.w3.org/2000/svg"
 width="260.000000pt" height="260.000000pt" viewBox="0 0 260.000000 260.000000"
 preserveAspectRatio="xMidYMid meet">
<metadata>
Created by potrace 1.11, written by Peter Selinger 2001-2013
</metadata>
<g transform="translate(0.000000,260.000000) scale(0.100000,-0.100000)"
fill="#000000" stroke="none">
<path d="M1055 2588 c-159 -24 -344 -142 -451 -288 -77 -104 -89 -147 -56
-191 10 -13 44 -65 75 -115 45 -73 57 -100 58 -135 2 -85 2 -86 -38 -94 -50
-9 -97 -46 -130 -102 -35 -61 -37 -147 -4 -211 25 -48 87 -97 142 -112 34 -9
38 -14 44 -53 15 -98 82 -234 152 -312 36 -40 119 -102 175 -131 65 -33 65
-33 42 -135 -21 -92 -31 -98 -195 -113 -101 -10 -149 -21 -204 -47 -138 -67
-200 -166 -229 -362 -22 -149 -21 -165 9 -179 26 -12 55 2 55 26 0 8 210 11
795 11 l795 0 15 -23 c9 -12 24 -22 34 -22 24 0 49 30 45 55 -6 34 -15 108
-20 159 -2 26 -6 52 -9 55 -2 4 -7 23 -10 42 -9 51 -60 133 -114 181 -81 73
-145 97 -301 113 -131 13 -145 16 -162 33 -14 14 -48 136 -48 172 0 4 34 27
76 50 154 84 274 245 308 410 13 64 13 65 59 81 90 32 145 100 154 189 11 110
-64 216 -167 236 -27 6 -29 10 -32 58 -3 49 -1 54 53 121 132 166 142 182 135
219 -24 126 -149 262 -296 320 -58 24 -202 32 -268 17 -48 -12 -53 -11 -124
22 -118 56 -237 74 -363 55z"/>
</g>
</svg>
